<?xml version="1.0" encoding="utf-8"?>
<!-- Generator: Adobe Illustrator 25.0.1, SVG Export Plug-In . SVG Version: 6.00 Build 0)  -->
<svg
  viewBox="0 0 1429 113"
  preserveAspectRatio="none"
  xmlns="http://www.w3.org/2000/svg"
>
<defs>
  <filter id="dropShadow" x="-50%" y="-50%" width="200%" height="200%">
    <feDropShadow dx="0" dy="2" stdDeviation="4" flood-opacity="0.25" />
  </filter>
</defs>
<style type="text/css">
	.st0{fill:#FFFFFF;}
	.st1{fill:#FFF0D9;}
</style>
<path class="st0" d="M1429,112.2c-8.9,0-17.2,0-22.5-0.2c-6.4-0.2-8.4-0.6-29.2-0.8c-20.8-0.2-59.2,0.4-80-0.6
	c-24-1.2-31.1-4.9-62.9-6c-23.4-0.8-50.8,3.8-74.4,7.3c-11,1.6-15.9,1-21.6,0.6c-12.9-1-20.1-3.3-30.3-3.6
	c-7.3-0.2-30.5-4.6-74.2-7.4c-24.8-1.6-54.8-2.3-71.5-2c-19.8,0.4-35.1,2.4-65.4,2.8c-26.8,0.4-44.9,1.3-60.8,1.4
	c-37.5,0.2-63.3,2.8-69.3,3.2c-16.1,1-33,0.2-52.2-0.2c-35-0.8-41.4-1.9-49.4-2.8c-10.3-1.2-20.3,0.9-39.2-2.8
	c-12.3-2.4-19.7-6.2-30.1-4.2c-7.3,1.4-14.5,2.9-26.9,3.2c-28.8,0.6-36,1.8-43.1,2.6c-11.2,1.2-25.5,9.7-56.6,3.2
	c-11.5-2.4-21.2-7.5-31.7-8.8c-12.6-1.6-28.7-2.5-35.1-1.6c-8.5,1.2-18.7,4.6-30.4,4.4c-31.8-0.4-40.5-3.2-48.2-4
	c-7.5-0.8-15.7,4.4-33.5,4.8c-36.3,0.8-61.9,1-64.8-0.8c-3.2-2-20-6.7-42.3-3c-13.5,2.2-27.4,6-39.7,3.4c-7.7-1.6-16.8-1.4-24.4-3.8
	c-7.1-2.2-21.3,1-34.4,0.8c-14.7-0.2-19.7-9.5-27.9-9.6c-12.3-0.2-36.4,3.7-50.7-0.8C4.4,86,2.2,85.4,0,85V20h1429V112.2z"/>
<g>
	<path class="st1" d="M1429,92.2c-8.9,0-17.2,0-22.5-0.2c-6.4-0.2-8.4-0.6-29.2-0.8c-20.8-0.2-59.2,0.4-80-0.6
		c-24-1.2-31.1-4.9-62.9-6c-23.4-0.8-50.8,3.8-74.4,7.3c-11,1.6-15.9,1-21.6,0.6c-12.9-1-20.1-3.3-30.3-3.6
		c-7.3-0.2-30.5-4.6-74.2-7.4c-24.8-1.6-54.8-2.3-71.5-2c-19.8,0.4-35.1,2.4-65.4,2.8c-26.8,0.4-44.9,1.3-60.8,1.4
		c-37.5,0.2-63.3,2.8-69.3,3.2c-16.1,1-33,0.2-52.2-0.2c-35-0.8-41.4-1.9-49.4-2.8c-10.3-1.2-20.3,0.9-39.2-2.8
		c-12.3-2.4-19.7-6.2-30.1-4.2c-7.3,1.4-14.5,2.9-26.9,3.2c-28.8,0.6-36,1.8-43.1,2.6c-11.2,1.2-25.5,9.7-56.6,3.2
		c-11.5-2.4-21.2-7.5-31.7-8.8c-12.6-1.6-28.7-2.5-35.1-1.6c-8.5,1.2-18.7,4.6-30.4,4.4c-31.8-0.4-40.5-3.2-48.2-4
		c-7.5-0.8-15.7,4.4-33.5,4.8c-36.3,0.8-61.9,1-64.8-0.8c-3.2-2-20-6.7-42.3-3c-13.5,2.2-27.4,6-39.7,3.4
		c-7.7-1.6-16.8-1.4-24.4-3.8c-7.1-2.2-21.3,1-34.4,0.8c-14.7-0.2-19.7-9.5-27.9-9.6c-12.3-0.2-36.4,3.7-50.7-0.8
		C4.4,66,2.2,65.4,0,65V0h1429V92.2z" filter="url(#dropShadow)"/>
</g>
</svg>
