<?xml version="1.0" encoding="utf-8"?>
<!-- Generator: Adobe Illustrator 25.0.1, SVG Export Plug-In . SVG Version: 6.00 Build 0)  -->
<svg viewBox="0 0 492 176" 
  preserveAspectRatio="none"
  xmlns="http://www.w3.org/2000/svg"
>
<defs>
  <filter id="dropShadow" x="-50%" y="-50%" width="200%" height="200%">
    <feDropShadow dx="0" dy="2" stdDeviation="2" flood-opacity="0.25" />
  </filter>
</defs>
<style type="text/css">
	.st0{fill:#FFFFFF;}
</style>
<g>
	<path class="st0" d="M468.2,12.2c14.9,0.8,20.8,1.4,21.2,1.4c0.2,0.7-4.3,7.6-3,12.4c0.7,2.7,0.5,5.7,0.2,8c-0.3,2-1,5.2-1.4,8.2
		c-0.4,2.7-0.9,8.5,0.2,11.9c0.9,2.7,2.9,4.3,3.4,6.5c0.5,2.2,0.1,3.7-0.1,6.5c-0.4,3.8-1.2,6.2-2,11.2c-0.9,5.1,1.2,7.7,2,9.8l0,0
		c0.7,1.8,1.5,3.9,1.6,8.8c0.1,3.8-2.4,6.7-3.1,9.3c-0.5,1.9-0.4,4.5-0.4,7c0,1.8,1.2,3.1,2,4.6c0.8,1.5,1.1,3.2,1.3,5.7
		c0.3,3.9-0.1,6.8-0.4,9.5c-0.6,6.2-0.2,10.9-0.3,13.1c0,4.5-0.1,8-0.3,9.3c0,0.6,2.8,8.4,2.8,9.1l0,0c-0.4,0.9-0.8,1.8-1.5,2.3
		c-0.6,0.5-1.5,0.8-2.4,0.9c-4.1,0.6-8.7,2.1-13.7,2c-8.7-0.1-14.3,0.2-18.6-1.2c-3.4-1.1-6.9-1.9-10.4-3.1
		c-6.2-2.2-12.7-0.9-19,0.2c-4.9,0.9-10.2,2.6-15.1,3.3c-4.8,0.7-10.6,3-17.4,2.5c-5.3-0.3-9.9,1.1-19.9,0.3
		c-9.3-0.7-19.9-3.4-25.5-2.3c-5.2,1-11.1,1.4-22.7,3.4c-3.8,0.7-16.5,1.5-33.8,0.8c-7.5-0.3-9.6-1-11.8-1.1
		c-6-0.3-18.7-0.7-27.4-0.2c-6.5,0.3-10.2,3.2-18,3.2c-15.8,0-19.8-0.3-24.3-1.9c-4-1.4-8.6-2.6-13.5-3.8
		c-5.3-1.2-25.7-2.5-38.5-0.9c-6,0.8-13.2,0.8-18.8,1.9c-11.7,2.2-27.1,5.2-32.4,3.3c-3.7-1.3-13.8-2.1-22.7-3.5
		c-5.5-0.9-12.3-1-16.2,0c-4.4,1.1-9.4,1.3-21.9,2.5c-5.7,0.6-9.2,3.4-13,2.2c-1.8-0.6-3.4-4.4-7.1-5.4c-3.4-0.9-13.8,2-16-3.3
		c-1.6-4-6.5-7.1-7.1-11.4c-0.4-3-0.3-5.7,0.3-7.4c1.4-3.5,4.5-6.5,4.3-11.6c-0.2-6.5,0.9-10.4,0.4-14.9c-0.7-6.6-3.6-11.4-3.4-16
		c0.2-4.1,2.7-7.9,4.1-11.9c1.4-3.9,3.7-9,1.9-13.3c-1.8-4.3-6.9-6.4-8.4-11.3c-1.3-4.3-4-8.7-2-13.6c1.8-4.4,4.3-7.9,5.8-12.1
		c1.5-4.2,3.5-10.6,2-14.6c-1.4-3.5-3.1-8.1-1-11.3c2-3.1,3.6-7.1,6.9-8.1c1.9-0.5,4.5-0.3,6.8,0.8c3.8,1.8,7.2,2,17.9,0.5
		c5.6-0.8,14.9-1,22-0.7c8.1,0.3,11.5,0.1,15.7,0.2c5.1,0.1,9.3,1,20.4,1.1c8.2,0.1,23.3,0.4,31.7-0.1c10.1-0.7,13-1.6,20.3-1.7
		c16.5-0.1,28-0.5,30.5-0.7c5.6-0.3,10.3-0.7,22.1-3.8c7.2-1.9,11.3-3.9,16.4-4.6c6.9-1,17.3-1.2,21.9,0.8
		c5.9,2.7,10.4,4.3,16.3,6.9c6.5,2.9,10.3,3.5,15.5,4c7.1,0.7,16.5,3.4,37.3,1.2c7.4-0.8,14-2.5,19.4-4.4c5.3-1.9,10.5-5.1,15.8-4
		c5.6,1.2,10.8,2.9,15,4.6c3.5,1.4,7.7,2.7,19.2,3.3c9.6,0.6,23.9,1.6,29.7,2c9,0.6,18.2-1.4,30.5-2.1l0.9-0.1
		C447.2,12.5,459.3,11.8,468.2,12.2z" filter="url(#dropShadow)"/>
</g>
</svg>
