<?xml version="1.0" encoding="utf-8"?>
<!-- Generator: Adobe Illustrator 25.0.1, SVG Export Plug-In . SVG Version: 6.00 Build 0)  -->
<svg xmlns="http://www.w3.org/2000/svg" viewBox="0 0 492 176" preserveAspectRatio="none" shape-rendering="crispEdges">
<style type="text/css">
	.st0{filter:url(#dropShadow);}
	.st1{fill:#FFFFFF;}
</style>
<filter  height="200%" id="dropShadow" width="200%" x="-50%" y="-50%">
	<feDropShadow  dx="0" dy="2" flood-opacity="0.25" stdDeviation="2"></feDropShadow>
</filter>
<g>
	<g class="st0">
		<path class="st1" d="M463.8,14.5c14.6,0.8,20.4,1.4,20.8,1.4c0.2,0.7-4.2,7.4-2.9,12.1c0.7,2.6,0.5,5.6,0.2,7.8
			c-0.3,2-1,5.1-1.4,8c-0.4,2.6-0.9,8.3,0.2,11.6c0.9,2.6,2.8,4.2,3.3,6.3s0.1,3.6-0.1,6.3c-0.4,3.7-1.2,6.1-2,10.9
			c-0.9,5,1.2,7.5,2,9.6l0,0c0.7,1.8,1.5,3.8,1.6,8.6c0.1,3.7-2.4,6.5-3,9.1c-0.5,1.9-0.4,4.4-0.4,6.8c0,1.8,1.2,3,2,4.5
			s1.1,3.1,1.3,5.6c0.3,3.8-0.1,6.6-0.4,9.3c-0.6,6.1-0.2,10.6-0.3,12.8c0,4.4-0.1,7.8-0.3,9.1c0,0.6,2.7,8.2,2.7,8.9l0,0
			c-0.4,0.9-0.8,1.8-1.5,2.2c-0.6,0.5-1.5,0.8-2.4,0.9c-4,0.6-8.5,2-13.4,2c-8.5-0.1-14,0.2-18.2-1.2c-3.3-1.1-6.8-1.9-10.2-3
			c-6.1-2.1-12.4-0.9-18.6,0.2c-4.8,0.9-10,2.5-14.8,3.2c-4.7,0.7-10.4,2.9-17,2.4c-5.2-0.3-9.7,1.1-19.5,0.3
			c-9.1-0.7-19.5-3.3-25-2.2c-5.1,1-10.9,1.4-22.2,3.3c-3.7,0.7-16.2,1.5-33.1,0.8c-7.3-0.3-9.4-1-11.6-1.1
			c-5.9-0.3-18.3-0.7-26.8-0.2c-6.4,0.3-10,3.1-17.6,3.1c-15.5,0-19.4-0.3-23.8-1.9c-3.9-1.4-8.4-2.5-13.2-3.7
			c-5.2-1.2-25.2-2.4-37.7-0.9c-5.9,0.8-12.9,0.8-18.4,1.9c-11.5,2.1-26.5,5.1-31.7,3.2c-3.6-1.3-13.5-2-22.2-3.4
			c-5.4-0.9-12-1-15.9,0c-4.3,1.1-9.2,1.3-21.4,2.4c-5.6,0.6-9,3.3-12.7,2.1c-1.8-0.6-3.3-4.3-7-5.3c-3.3-0.9-13.5,2-15.7-3.2
			c-1.6-3.9-6.4-6.9-7-11.1c-0.4-2.9-0.3-5.6,0.3-7.2c1.4-3.4,4.4-6.3,4.2-11.3c-0.2-6.3,0.9-10.1,0.4-14.5
			c-0.7-6.4-3.5-11.1-3.3-15.6c0.2-4,2.6-7.7,4-11.6c1.4-3.8,3.6-8.8,1.9-13s-6.8-6.2-8.2-11c-1.3-4.2-3.9-8.5-2-13.3
			c1.8-4.3,4.2-7.7,5.7-11.8c1.5-4.1,3.4-10.3,2-14.2c-1.4-3.4-3-7.9-1-11c2-3,3.5-6.9,6.8-7.9c1.9-0.5,4.4-0.3,6.7,0.8
			c3.7,1.8,7.1,2,17.5,0.5c5.5-0.8,14.6-1,21.5-0.7c7.9,0.3,11.3,0.1,15.4,0.2c5,0.1,9.1,1,20,1.1c8,0.1,22.8,0.4,31-0.1
			c9.9-0.7,12.7-1.6,19.9-1.7c16.2-0.1,27.4-0.5,29.9-0.7c5.5-0.3,10.1-0.7,21.6-3.7c7.1-1.9,11.1-3.8,16.1-4.5
			c6.8-1,16.9-1.2,21.4,0.8c5.8,2.6,10.2,4.2,16,6.7c6.4,2.8,10.1,3.4,15.2,3.9c7,0.7,16.2,3.3,36.5,1.2c7.2-0.8,13.7-2.4,19-4.3
			c5.2-1.9,10.3-5,15.5-3.9c5.5,1.2,10.6,2.8,14.7,4.5c3.4,1.4,7.5,2.6,18.8,3.2c9.4,0.6,23.4,1.6,29.1,2c8.8,0.6,17.8-1.4,29.9-2
			l0.9-0.1C443.2,14.8,455.1,14.2,463.8,14.5z"
			stroke="#000000"
  stroke-width="4" shape-rendering="geometricPrecision"/>
	</g>
</g>
</svg>
