<?xml version="1.0" encoding="utf-8"?>
<!-- Generator: Adobe Illustrator 25.0.1, SVG Export Plug-In . SVG Version: 6.00 Build 0)  -->
<svg version="1.1" id="Layer_1" xmlns="http://www.w3.org/2000/svg" xmlns:xlink="http://www.w3.org/1999/xlink" x="0px" y="0px"
	 viewBox="0 0 2055.12 890.08" style="enable-background:new 0 0 2055.12 890.08;" xml:space="preserve">
<style type="text/css">
	.st0{fill:#FFFFFF;}
</style>
<polygon class="st0" points="0,617.53 0,430.91 25.15,430.91 25.15,288.62 76.2,236.09 105.05,236.09 132.05,208.3 155.35,208.3 
	155.35,150.06 238.21,95.24 346.22,128.74 346.22,172.9 528.21,108.95 689.48,159.19 689.48,182.04 699.84,182.04 751.62,95.24 
	751.62,34.33 852.23,34.33 997.23,0.83 1106.72,72.4 1479.57,72.4 1479.57,136.35 1553.55,136.35 1633.44,107.42 1741.45,107.42 
	1788.8,76.97 1788.8,14.54 1889.41,14.54 1889.41,84.58 1929.35,131.79 1929.35,214.01 2017.99,214.01 2055.12,261.22 
	2055.12,698.23 1976.7,714.98 1806.55,714.98 1608.29,705.85 1586.1,705.85 1510.64,654.08 1173.3,654.08 1128.91,714.98 
	1080.08,750.01 1044.57,810.91 1044.57,829.19 767.9,829.19 605.14,888.57 417.24,888.57 213.06,813.96 213.06,739.35 0,739.35 "/>
</svg>
