<svg id="Lager_1" data-name="Lager 1" xmlns="http://www.w3.org/2000/svg" viewBox="0 0 1080 1080"><defs><style>.cls-1{fill:#f3c8c2;}.cls-2{fill:#f5eae0;}.cls-3{fill:#83a49c;}.cls-4{fill:#4a4a48;}</style></defs><circle class="cls-1" cx="540" cy="540" r="540"/><path class="cls-2" d="M731.78,299.57C694,249.5,636.1,217.63,543.91,217.63S396,249.5,358.23,299.57s-41.7,108.28-31.55,151.09c10,42.21,49.5,117.5,84.26,169.1s46.72,124.11,46.72,124.11l86.58,5,86.07-5s11.83-72.52,46.6-124.12S750.64,497.63,761.16,455,769.56,349.65,731.78,299.57Z"/><path class="cls-3" d="M705.35,413.24c-2.82-9.3-11.67-16.48-22.55-18.32a28.76,28.76,0,0,0-28.57,11.77c-1.53,2.1-4.79,6.54-16.64,66.56q-3.45,1.85-7.1,3.48c-14.88,6.56-46.55-.49-56.48-12.59-4.37-5.32-9.25-10.94-14-16.32,1.06-1.36,2.14-2.77,3.21-4.19,9.69-12.91,21.81-31.39,24.55-46.05,2.89-15.47-4.73-25.07-13.57-27.71-10.13-3-19.62,2.12-25.91,10.14-3.92-4.34-9.58-9.08-16.13-10.42A18.29,18.29,0,0,0,517.4,373a20.53,20.53,0,0,0-8.5,13.95c-1.53,10.64,4.06,24,17.07,40.94,2.69,3.49,7.88,9.28,14.47,16.61l3.39,3.77c-7.09,8.49-13.6,15.3-17.35,18.39-10,8.22-19.43,10.05-29.46,12l-3.13.61A54,54,0,0,1,467,477.67c-10.15-57-17-64.81-20-68.12-12.72-14.3-24.71-14-30.73-12.53-9.16,2.23-16.43,9.81-19,19.8-3.13,12.25,1.36,25.37,11.9,34.95,1.32,1.2,2.84,2.68,4.57,4.35,8.81,8.56,23.49,22.76,42.38,30.71,11.31,67,22.24,170,29.71,257h-28.2l4.93,87.64S487.46,870.36,548,870.6c36.14.14,81.13-17.49,82.36-35.49s0-91.18,0-91.18H602.54C624.92,609,639.32,528.75,648.59,481.26c19.09-11.48,33.68-26.92,42.24-35.94,2.25-2.4,4.2-4.46,5.6-5.78C707.85,428.72,706.91,418.41,705.35,413.24Zm-283,34c-1.83-1.78-3.45-3.33-4.85-4.6-10.29-9.38-9.2-19-8.26-22.76,1.43-5.55,5.23-9.71,9.93-10.86a12.24,12.24,0,0,1,2.76-.32c5,0,10.56,3.14,15.82,9.06,5.07,5.69,10.41,25.51,15.73,54.13C440.3,464.69,429.64,454.35,422.32,447.25Zm113.45-26.92c-14.07-18.27-15.21-27.67-14.64-31.66a8.13,8.13,0,0,1,3.6-5.73,5.84,5.84,0,0,1,5-1.25c5.9,1.19,12.19,9.67,13.93,12.54L550,404.7l4.72-11.26c4.05-9.65,11.14-13.18,16.06-11.73,4.39,1.31,6.3,6.53,5,13.6-2.19,11.74-12.84,28.59-24,43.12l-2.11-2.23C543.47,429.35,538.17,423.44,535.77,420.33ZM590,743.87H498.13c-2.92-33.62-7.45-82.65-13-132.39-5.88-53-11.21-91.89-15.91-120.44a65,65,0,0,0,27.08.3l3.06-.6c10.58-2.05,22.56-4.37,35-14.58,3.8-3.12,10.46-10,17.78-18.61,4.24,4.79,8.51,9.75,12.34,14.43,13.18,16,50.13,24.56,70.2,16.4-9.42,48.89-23.47,127.77-44.63,255.49ZM688,430.48c-1.65,1.55-3.59,3.59-6.12,6.27-7,7.38-17.06,18.06-29.86,27.4,7.65-37.77,10.9-48,12.25-50.22a16.12,16.12,0,0,1,13.49-7.08,18.53,18.53,0,0,1,3.07.26c6.1,1,11.34,5,12.77,9.71,1.6,5.41-2.16,10.41-5.6,13.66Z"/><path class="cls-4" d="M403,174.26a1.85,1.85,0,0,1-.08,2.62h0a54.21,54.21,0,0,1-21.88,18.32c-24.54,11.18-48.8,1.52-60.53-24.21s-3.11-50.38,21.43-61.57a53.93,53.93,0,0,1,28.18-4.49c1.2,0,2,.65,2.05,1.65l-.31,20.15c0,1.28-.66,2-1.84,2a29.07,29.07,0,0,0-15.34,3c-10.72,4.89-14.28,16-8.92,27.81s16.12,16.4,26.84,11.51a29,29,0,0,0,12.3-9.64,1.7,1.7,0,0,1,2.36-.4,2.05,2.05,0,0,1,.34.32Z"/><path class="cls-4" d="M495.27,157.74a1.2,1.2,0,0,1-.24,1.68,1.11,1.11,0,0,1-.55.22l-25.36,5.41a3.07,3.07,0,0,1-3-1.09l-6.71-12.63-24.08,5.13-1,14.26A3,3,0,0,1,432,173l-25.36,5.4a1.19,1.19,0,0,1-1.49-.8,1.15,1.15,0,0,1,0-.61L415.9,85.75a4,4,0,0,1,2.72-2.33l26.12-5.56a4,4,0,0,1,3.43,1Zm-57-46.49-1.74,25.8,13.84-3Z"/><path class="cls-4" d="M600.16,67.71A1.91,1.91,0,0,1,602,69.65l1.42,86.53a1.87,1.87,0,0,1-1.79,1.87l-24.23.38a2,2,0,0,1-2-1.79l-.62-38.49-12.6,38.57a3.91,3.91,0,0,1-3.25,2l-14.37.24a4,4,0,0,1-3.31-1.9l-13.89-38.15L528,157.4a2,2,0,0,1-1.94,1.87l-24.22.4a1.87,1.87,0,0,1-1.86-1.81l-1.41-86.54a1.91,1.91,0,0,1,1.81-2l27.36-.45a5.56,5.56,0,0,1,4.49,2.55l18.88,49.73,17.26-50.32a5.59,5.59,0,0,1,4.41-2.69Z"/><path class="cls-4" d="M663.87,78.77c22.32,5.17,32.91,20.37,28.69,38.62s-20.36,27.27-42.74,22.09l-5.23-1.19-5.91,25.51a2,2,0,0,1-2.39,1.31l-22.83-5.29a2,2,0,0,1-1.38-2.2L631.6,73.31a2,2,0,0,1,2.23-1.5Zm-7.61,38.14a7.72,7.72,0,0,0,3.49-15l-6.63-1.53-3.49,15Z"/><path class="cls-4" d="M773.23,125.08a2.22,2.22,0,0,1,1.14,2.92v0l-22.27,49.85c-9.45,21.14-25.77,27.2-47.4,17.54-21.41-9.58-27.79-25.75-18.59-47l22.26-49.85a2.29,2.29,0,0,1,2.94-1.12l20.57,9.17a2.22,2.22,0,0,1,1.14,2.92l0,0-23.22,52c-2.4,5.5-.79,10.11,4.46,12.46s9.81.51,12.22-4.86L749.73,117a2.28,2.28,0,0,1,2.93-1.12Z"/><path class="cls-4" d="M763.85,188.9c1.07-.85,2-.66,2.53.48,3,6.22,7.52,12.37,11.39,15.57,3.44,2.39,6.83,2.39,8.54-.13,4.4-6.36-26.08-27-9.83-50.46,10-14.37,27.55-16.47,43.86-5.14,7.65,5.3,15.18,15.12,18.75,24.45.49,1.14.22,2.22-.48,2.54l-17.3,10.48c-1.06.85-2,.65-2.52-.48C815.6,179.54,811,173,807.48,170.1c-3.33-2.31-6.53-2.3-8.17.07-4.4,6.35,26.35,27,10,50.71-9.92,14.38-27.65,16.22-44.23,4.79-9-6.25-16.58-15.57-19-23.66-.42-1.19-.21-2.21.48-2.52Z"/><path class="cls-4" d="M838.53,251.25a1.52,1.52,0,0,1,2.39,1.1c1.35,6.79,4.15,13.87,7.1,17.9,2.73,3.18,6,4,8.28,2,5.86-5-18.41-32.69,3.25-51.28,13.31-11.43,30.76-9,43.74,6.1,6,7,10.85,18.47,12,28.4.19,1.2-.35,2.19-1.11,2.32l-19.38,5.78a1.53,1.53,0,0,1-2.39-1.11c-1.39-7.26-4.17-14.71-6.87-18.44-2.63-3.08-5.74-3.87-7.92-2-5.85,5,18.68,32.8-3.17,51.57-13.18,11.34-30.84,8.71-44-6.59-7.18-8.39-12.08-19.3-12.38-27.69-.09-1.3.36-2.2,1.1-2.32Z"/><path class="cls-4" d="M895.49,379.9c-.48,1-1.31.88-1.82,0l-14.89-26.47a3.5,3.5,0,0,1,0-3.18L899.33,320,871.06,335.9a1.88,1.88,0,0,1-2.55-.8h0l-11.37-20.2a2,2,0,0,1,.71-2.49L933.31,270a2,2,0,0,1,2.61.63l11.33,20.21a1.92,1.92,0,0,1-.67,2.63l-.07,0-25.57,14.38,33.62-.89a3.59,3.59,0,0,1,2.84,1.86l14.06,25c.51.91.14,1.57-.92,1.57l-48.89-2.2Z"/><path class="cls-4" d="M921.82,452.19c-.91,1-2.07.41-2.4-.7l-8.85-26.6a3.44,3.44,0,0,1,1-3.51l22.76-21.94-.5-1.49-27.35,9.1a2,2,0,0,1-2.4-1.41l-7.28-21.87a2,2,0,0,1,1.13-2.4L980.1,354a2,2,0,0,1,2.47,1.2L993.49,388c6.37,19.17-.59,35.53-17.49,41.16-9.81,3.27-21.74.62-28.82-7.39Zm35.59-53.9c1.4,4.23,5,6.22,9,4.89s5.63-5.06,4.21-9.28l-2.39-7.33L955,391Z"/><path class="cls-4" d="M934.71,544.83a1.2,1.2,0,0,1-1.66-.34,1.16,1.16,0,0,1-.2-.6l-3.67-25.66a3.08,3.08,0,0,1,1.3-3l13.06-5.82-3.48-24.38-14.16-1.94a3,3,0,0,1-2.07-2.48L920.16,455a1.2,1.2,0,0,1,.92-1.42,1.15,1.15,0,0,1,.61,0l90.25,17a4,4,0,0,1,2.13,2.86l3.77,26.45a4,4,0,0,1-1.2,3.36ZM985,491.09,959.4,487.6l2,14Z"/><path class="cls-4" d="M1004.47,661.55a1.9,1.9,0,0,1-2.24,1.47l-85.3-14.69a1.9,1.9,0,0,1-1.5-2.12l4.12-23.88a2,2,0,0,1,2.14-1.63l37.93,6.54-35.55-19.55a4,4,0,0,1-1.39-3.59l2.4-14.2a3.91,3.91,0,0,1,2.49-2.88l40-6.53L929.74,574a2,2,0,0,1-1.48-2.25l4.12-23.88a1.87,1.87,0,0,1,2.11-1.49l85.3,14.7a1.9,1.9,0,0,1,1.63,2.14l-4.69,27a5.54,5.54,0,0,1-3.35,3.94L961,603.44l46.23,26.35a5.52,5.52,0,0,1,1.82,4.8Z"/><path class="cls-4" d="M917.64,706.74a1.78,1.78,0,0,1-2.3,1l-18.12-8.46a2.25,2.25,0,0,1-1-2.59l16-44.47a2,2,0,0,1,2.39-1.2l81.46,29.27a2,2,0,0,1,1.2,2.51l-7.87,21.75a2,2,0,0,1-2.52,1.2l-61-21.92Z"/><path class="cls-4" d="M849.73,780.81a1.2,1.2,0,0,1-.88-1.88l13-22.41a3,3,0,0,1,2.85-1.51l13.86,3.51L891,737.25,881,726.93a3,3,0,0,1-.08-3.23l13-22.42a1.19,1.19,0,0,1,1.6-.54,1.23,1.23,0,0,1,.46.39l60.31,69.29a3.92,3.92,0,0,1-.1,3.59l-13.43,23.07a4,4,0,0,1-3.06,1.87Zm72.75-11-18-18.61-7.12,12.22Z"/><path class="cls-4" d="M799.8,838.82c-1.31-.32-1.38-1.61-.59-2.48L818,815.52a3.42,3.42,0,0,1,3.6-.83l30.31,9,1.06-1.19-21.41-19.29a2,2,0,0,1,0-2.78L847,783.28a2,2,0,0,1,2.67-.23L913.94,841a2,2,0,0,1,.14,2.78L891,869.48c-13.5,15-31.15,17-44.43,5.09-7.68-6.92-11.26-18.6-7.8-28.75Zm64.48,4.33c-3,3.31-2.94,7.38.16,10.18s7.19,2.4,10.16-.89l5.17-5.74-10.31-9.3Z"/><path class="cls-4" d="M682,914.62A1.87,1.87,0,0,1,682,912h0a54.29,54.29,0,0,1,21.79-18.42c24.5-11.3,48.81-1.75,60.65,24s3.35,50.37-21.14,61.66a54.08,54.08,0,0,1-28.15,4.64c-1.2,0-2-.66-2.06-1.65l.22-20.15c0-1.28.65-2,1.82-2a29,29,0,0,0,15.33-3c10.7-4.94,14.21-16.08,8.78-27.84s-16.18-16.33-26.89-11.39a29.11,29.11,0,0,0-12.26,9.69,1.68,1.68,0,0,1-2.35.41,1.47,1.47,0,0,1-.34-.32Z"/><path class="cls-4" d="M589.08,929.33a1.2,1.2,0,0,1,.19-1.68,1.27,1.27,0,0,1,.57-.25l25.28-5.77a3,3,0,0,1,3,1L625,935.2l24-5.46.77-14.28a3,3,0,0,1,2.3-2.27l25.27-5.78a1.19,1.19,0,0,1,1.5.79,1.22,1.22,0,0,1,0,.6l-9.46,91.36a4,4,0,0,1-2.68,2.4l-26,6a3.94,3.94,0,0,1-3.44-1ZM646.79,975l1.34-25.83-13.77,3.15Z"/><path class="cls-4" d="M483.47,1017.76a1.89,1.89,0,0,1-1.78-2h0l1.87-86.52a1.87,1.87,0,0,1,1.88-1.79l24.21.52a2,2,0,0,1,1.92,1.87l-.83,38.49,14-38.07a4,4,0,0,1,3.31-1.89l14.38.31a4,4,0,0,1,3.22,2l12.4,38.64.83-38.49a2,2,0,0,1,2-1.78l24.22.51a1.9,1.9,0,0,1,1.8,1.88L585.06,1018a1.9,1.9,0,0,1-1.88,1.93h0l-27.34-.6a5.56,5.56,0,0,1-4.4-2.71l-17-50.4-19.16,49.61a5.56,5.56,0,0,1-4.51,2.53Z"/><path class="cls-4" d="M422.47,1004.48c-22.36-5-33.05-20.17-29-38.44s20.25-27.39,42.61-22.37l5.24,1.2,5.75-25.56a2,2,0,0,1,2.39-1.33l22.87,5.14a2,2,0,0,1,1.39,2.2l-19,84.45a2,2,0,0,1-2.21,1.52Zm7.37-38.2a7.73,7.73,0,0,0-3.83,15l.44.1,6.65,1.5,3.39-15.08Z"/><path class="cls-4" d="M309.43,960.61a2.21,2.21,0,0,1-1.06-2.94l0,0,23.52-49.26c10-20.92,26.46-26.55,47.85-16.33,21.15,10.1,27.13,26.45,17.38,47.47L373.6,988.79a2.28,2.28,0,0,1-3,1l-20.36-9.7a2.19,2.19,0,0,1-1.06-2.93v0l24.55-51.4c2.59-5.43,1-10.09-4.16-12.57s-9.78-.76-12.32,4.55l-24.57,51.53a2.31,2.31,0,0,1-3,1Z"/><path class="cls-4" d="M322.45,893.15c-1.09.83-2.06.6-2.52-.55-2.86-6.3-7.18-12.55-11-15.81-3.39-2.47-6.77-2.5-8.54-.07-4.57,6.23,25.37,27.62,8.53,50.67-10.35,14.17-27.91,15.77-44,4-7.51-5.48-14.78-15.51-18.11-24.91-.47-1.2-.17-2.23.54-2.53l17.56-10c1.09-.81,2.06-.6,2.52.55,3,6.75,7.41,13.37,10.89,16.39,3.28,2.39,6.46,2.47,8.16.14,4.57-6.24-25.65-27.68-8.66-50.94,10.28-14.06,28.05-15.5,44.33-3.6,8.87,6.49,16.17,16,18.36,24.13.38,1.2.16,2.23-.54,2.53Z"/><path class="cls-4" d="M252.05,835.63a1.52,1.52,0,0,1-2.4-1.08c-1.45-6.76-4.37-13.8-7.38-17.78-2.79-3.13-6.08-3.89-8.38-1.89-5.77,5.13,19,32.34-2.4,51.34-13.17,11.66-30.61,9.5-43.84-5.39-6.17-7-11.15-18.29-12.42-28.2a2,2,0,0,1,1.06-2.39l19.29-6.09c1.2-.57,2.14-.15,2.4,1.07,1.52,7.19,4.42,14.64,7.18,18.33,2.7,3,5.8,3.78,8,1.87,5.77-5.13-19.17-32.5,2.32-51.63,13-11.56,30.7-9.22,44.1,5.87,7.29,8.23,12.39,19.1,12.83,27.48.1,1.3-.32,2.21-1.07,2.39Z"/><path class="cls-4" d="M190.55,709.78c.44-1,1.28-.92,1.82,0l15.57,26.06A3.48,3.48,0,0,1,208,739l-19.76,30.73,27.87-16.66a1.91,1.91,0,0,1,2.58.74l11.89,19.9a2,2,0,0,1-.63,2.52l-74.27,44.39a2,2,0,0,1-2.62-.56l-11.89-19.9a1.91,1.91,0,0,1,.59-2.64l.08,0L167,782.43l-33.54,1.76a3.61,3.61,0,0,1-2.89-1.77L115.86,757.8c-.54-.9-.18-1.57.88-1.59l48.93,1Z"/><path class="cls-4" d="M165.3,636.25c.9-1,2.06-.44,2.45.66l9.25,26.4a3.41,3.41,0,0,1-1,3.54l-22.39,22.31.53,1.48,27.17-9.59a2,2,0,0,1,2.39,1.38l7.65,21.78a2,2,0,0,1-1.08,2.39l-81.65,28.75a2,2,0,0,1-2.5-1.19L94.71,701.54c-6.69-19,0-35.53,16.77-41.44,9.75-3.42,21.71-1,28.93,6.91Zm-34.74,54.52c-1.47-4.21-5.07-6.14-9-4.79s-5.56,5.13-4.07,9.34L120,702.6l13.1-4.6Z"/><path class="cls-4" d="M152.49,544.62a1.22,1.22,0,0,1,1.66.36,1.28,1.28,0,0,1,.19.6l3.35,25.7a3,3,0,0,1-1.33,2.94l-13.18,5.68,3.19,24.42,14.14,2.1a3.06,3.06,0,0,1,2,2.52l3.36,25.69a1.19,1.19,0,0,1-.93,1.42,1,1,0,0,1-.6,0l-90-18.08a3.94,3.94,0,0,1-2.08-2.9l-3.47-26.49a4,4,0,0,1,1.28-3.33Zm-50.9,53.13,25.58,3.76-1.82-14Z"/><path class="cls-4" d="M76.1,433a1.9,1.9,0,0,1,2.18-1.57l85.86,10.95a1.86,1.86,0,0,1,1.59,2l-3.1,24a2,2,0,0,1-2.08,1.72l-38.18-4.87,36.39,18a4,4,0,0,1,1.53,3.5l-1.82,14.28a4,4,0,0,1-2.4,3l-39.73,8.27,38.19,4.86a2,2,0,0,1,1.57,2.18l-3.07,24A1.88,1.88,0,0,1,151,545l-85.85-11A1.89,1.89,0,0,1,63.42,532h0l3.45-27.15A5.51,5.51,0,0,1,70,500.77l51.9-11.61L74.68,465a5.52,5.52,0,0,1-2-4.79Z"/><path class="cls-4" d="M162.82,382.67a1.76,1.76,0,0,1,2.31-.93h0L183,390.68a2.23,2.23,0,0,1,.95,2.61L166.88,437.4a2,2,0,0,1-2.4,1.2L83.79,407.27a2,2,0,0,1-1.11-2.54l8.38-21.56a2,2,0,0,1,2.54-1.11L154,405.51Z"/><path class="cls-4" d="M228.41,310.23a1.2,1.2,0,0,1,1.11,1.28,1.18,1.18,0,0,1-.19.58L216.66,334.7a3,3,0,0,1-2.82,1.57L199.93,333l-12,21.48L198,364.62a3,3,0,0,1,.13,3.22l-12.65,22.63a1.2,1.2,0,0,1-2.06.19L122,322.38a4,4,0,0,1,0-3.6l13-23.28a4,4,0,0,1,3-1.91ZM155.87,322.4l18.26,18.32,6.9-12.34Z"/><path class="cls-4" d="M281.29,251.45c1.32.28,1.4,1.57.64,2.46L263.51,275a3.45,3.45,0,0,1-3.59.9l-30.47-8.5-1,1.2,21.72,18.93a2,2,0,0,1,0,2.78L235,307.73a2,2,0,0,1-2.67.27l-65.26-56.85a2,2,0,0,1-.19-2.78l22.76-26.06c13.25-15.21,30.9-17.53,44.32-5.84,7.8,6.79,11.57,18.43,8.28,28.58Zm-64.54-3.32c2.92-3.35,2.82-7.42-.34-10.18s-7.19-2.29-10.13,1.07l-5.08,5.82L211.67,254Z"/><circle class="cls-3" cx="280.48" cy="201.57" r="25.93"/><circle class="cls-3" cx="798.76" cy="895.78" r="25.93"/></svg>