<svg width="1512" height="25" viewBox="0 0 1512 25" fill="none" xmlns="http://www.w3.org/2000/svg">
<path d="M1440.93 12.3001C1468.96 33.4898 1499.99 21.1291 1512 12.3001L1512 0.000131607L2.09814e-06 -5.76183e-07L1.02284e-06 12.2999C26.0259 31.3225 45.3784 20.226 54.0537 12.2999C63.0626 4.07287 88.1875 -7.44502 116.616 12.2999C145.044 32.0449 172.505 20.527 182.681 12.2999C195.694 3.4709 228.727 -8.88976 256.755 12.3C284.783 33.4897 316.314 21.129 328.326 12.3C338.169 4.37389 364.362 -6.72262 390.387 12.3C416.413 31.3225 440.27 20.226 448.945 12.3C457.954 4.07291 483.079 -7.44498 511.508 12.3C539.936 32.0449 567.396 20.527 577.573 12.3C590.586 3.47094 623.619 -8.88973 651.646 12.3C679.674 33.4897 710.705 21.129 722.717 12.3C732.56 4.37392 758.753 -6.72258 784.779 12.3C810.804 31.3226 834.661 20.2261 843.337 12.3C852.346 4.07294 877.471 -7.44495 905.899 12.3C934.327 32.045 961.788 20.5271 971.964 12.3C984.977 3.47097 1018.01 -8.8897 1046.04 12.3C1074.07 33.4897 1105.6 21.1291 1117.61 12.3C1127.45 4.37396 1153.64 -6.72255 1179.67 12.3C1205.7 31.3226 1229.55 20.2261 1238.23 12.3C1247.24 4.07297 1272.36 -7.44491 1300.79 12.3C1329.22 32.045 1356.68 20.5271 1366.86 12.3001C1379.87 3.471 1412.9 -8.88966 1440.93 12.3001Z" fill="#FFF0D9" stroke="#FFF0D9"/>
</svg>
