<svg width="315" height="198" viewBox="0 0 315 198" fill="none" xmlns="http://www.w3.org/2000/svg">
<path d="M175.317 181.262C140.431 204.918 113.639 192.742 104.603 183.697C80.0885 191.49 70.5552 173.724 68.8528 163.868C38.6813 155.797 38.7337 135.689 42.5314 126.644C-17.183 113.007 3.76935 85.0141 21.7098 72.7222C19.8241 23.4619 59.948 26.2218 80.2456 33.7593C100.36 -9.37823 146.508 2.10194 167.067 13.2342C217.982 -8.47371 250.615 15.0896 260.567 29.5847C299.225 30.6979 304.436 63.9092 302.21 80.3757C324.839 99.8571 302.996 117.483 289.246 123.861C295.532 155.866 263.317 160.157 246.424 158.301C231.967 190.863 192.996 187.176 175.317 181.262Z" fill="white" stroke="black" stroke-width="5"/>
</svg>
