<svg width="175" height="148" viewBox="0 0 175 148" fill="none" xmlns="http://www.w3.org/2000/svg">
<path d="M69.583 5C105.564 5.00027 134.165 36.1059 134.165 73.7529C134.165 111.4 105.564 142.507 69.583 142.507C33.6018 142.507 5 111.4 5 73.7529C5.0002 36.1057 33.6019 5 69.583 5Z" fill="#FFF0D9" stroke="black" stroke-width="10"/>
<ellipse cx="71.0722" cy="72.5617" rx="48.5598" ry="53.0285" fill="black"/>
<ellipse cx="69.8806" cy="73.1575" rx="37.8349" ry="41.7078" fill="#83A85C"/>
<path d="M69.8804 43.1537C84.5438 43.1537 96.0112 56.5672 96.0112 72.5619C96.0111 88.5565 84.5437 101.97 69.8804 101.97C55.2171 101.97 43.7496 88.5564 43.7495 72.5619C43.7495 56.5672 55.217 43.1537 69.8804 43.1537Z" fill="#9CAF88" stroke="black" stroke-width="4"/>
<path d="M70.7747 59.1451C78.6091 59.1453 84.7864 65.9183 84.7864 74.0514C84.7863 82.1844 78.609 88.9574 70.7747 88.9576C62.9401 88.9576 56.7621 82.1846 56.762 74.0514C56.762 65.9181 62.9401 59.1451 70.7747 59.1451Z" fill="#83A85C" stroke="black" stroke-width="3"/>
<path d="M71.072 66.8909C74.85 66.8909 77.6364 70.2578 77.6365 74.051C77.6365 77.8443 74.85 81.2112 71.072 81.2112C67.294 81.2111 64.5076 77.8443 64.5076 74.051C64.5077 70.2578 67.2941 66.8909 71.072 66.8909Z" fill="black" stroke="black" stroke-width="3"/>
<path d="M153.883 31.6876L167.587 37.5167L170.664 38.8263L167.64 40.254L146.294 50.3331C145.531 50.8253 143.858 51.4196 142.267 50.2267C142.304 50.2547 142.238 50.2052 141.954 50.0831C141.706 49.9769 141.375 49.8492 140.969 49.7052C140.159 49.4178 139.116 49.0849 137.981 48.7413C135.714 48.0553 133.14 47.3454 131.462 46.9015L127.947 45.9708L131.096 44.1525L152.546 31.7687L153.194 31.3937L153.883 31.6876Z" fill="#83A85C" stroke="black" stroke-width="3"/>
<path d="M153.289 10.8243L150.906 26.3156L150.793 27.0519L150.137 27.4064L128.688 39.0245L125.854 40.5597L126.505 37.4034L128.59 27.2745L128.701 26.7345L129.135 26.3947L150.884 9.41321L153.864 7.08606L153.289 10.8243Z" fill="#83A85C" stroke="black" stroke-width="3"/>
<path d="M158.969 23.4043L160.299 25.1914L161.319 26.5635L159.826 27.3975C145.501 35.3923 123.895 47.3992 105.63 57.4385C96.4979 62.4577 88.1979 66.9879 82.0593 70.2783C78.9912 71.9229 76.4558 73.2616 74.6248 74.1982C73.7109 74.6657 72.9612 75.0386 72.4041 75.3008C72.1271 75.4311 71.8833 75.5411 71.6833 75.623C71.5524 75.6767 71.2525 75.8014 70.9607 75.8379L70.0408 75.9521L69.5261 75.1816L68.9304 74.2871L68.0574 72.9775L69.407 72.1689C82.6696 64.2213 102.968 52.2242 120.758 42.0635C129.651 36.9839 137.928 32.3573 144.389 28.9238C147.619 27.2079 150.408 25.7827 152.6 24.7461C154.722 23.743 156.46 23.0162 157.492 22.8252L158.411 22.6543L158.969 23.4043Z" fill="#CFB792" stroke="black" stroke-width="3"/>
</svg>
