<svg width="1512" height="22" viewBox="0 0 1512 22" fill="none" xmlns="http://www.w3.org/2000/svg">
<path d="M71.0705 11.2375C43.0427 -7.3036 12.0119 3.51204 0 11.2375V22H1512V11.2375C1485.97 -5.40735 1466.62 4.30215 1457.95 11.2375C1448.94 18.4362 1423.81 28.5144 1395.38 11.2375C1366.96 -6.03943 1339.5 4.03878 1329.32 11.2375C1316.31 18.963 1283.27 29.7786 1255.25 11.2375C1227.22 -7.3036 1195.69 3.51204 1183.67 11.2375C1173.83 18.1729 1147.64 27.8823 1121.61 11.2375C1095.59 -5.40735 1071.73 4.30215 1063.05 11.2375C1054.05 18.4362 1028.92 28.5144 1000.49 11.2375C972.064 -6.03943 944.604 4.03878 934.427 11.2375C921.414 18.963 888.381 29.7786 860.354 11.2375C832.326 -7.3036 801.295 3.51204 789.283 11.2375C779.44 18.1729 753.247 27.8823 727.221 11.2375C701.196 -5.40735 677.339 4.30215 668.663 11.2375C659.654 18.4362 634.529 28.5144 606.101 11.2375C577.673 -6.03943 550.212 4.03878 540.036 11.2375C527.023 18.963 493.99 29.7786 465.962 11.2375C437.934 -7.3036 406.403 3.51204 394.391 11.2375C384.548 18.1729 358.355 27.8823 332.33 11.2375C306.304 -5.40735 282.447 4.30215 273.772 11.2375C264.763 18.4362 239.638 28.5144 211.21 11.2375C182.781 -6.03943 155.321 4.03878 145.144 11.2375C132.131 18.963 99.0983 29.7786 71.0705 11.2375Z" fill="#9CAF88" stroke="#9CAF88"/>
</svg>
