<svg width="65" height="57" viewBox="0 0 65 57" fill="none" xmlns="http://www.w3.org/2000/svg">
<path d="M11.8005 55.915H25.5863V44.3644C25.5863 43.5195 26.3482 43.3523 26.7291 43.3743H32.5148H38.3005C38.6815 43.3523 39.372 43.4535 39.372 44.2984V55.849H53.1577C53.491 55.805 54.2291 55.5322 54.5148 54.7929C54.8005 54.0537 54.7053 37.346 54.5862 29.0515L32.5148 10.7685L10.4434 29.0515C10.3244 37.346 10.1577 54.1197 10.4434 54.8589C10.7291 55.5982 11.4672 55.871 11.8005 55.915Z" fill="black" stroke="black"/>
<path d="M1 26.4774L4.35714 29.9756L32.2143 7.00633L60.3571 29.9756L64 26.4774L32.2143 1L1 26.4774Z" fill="black" stroke="black"/>
<path d="M10.4287 4.6962V15.5208L18.2859 9.11844V4.6962H10.4287Z" fill="black" stroke="black"/>
</svg>
