<svg id="Layer_1" data-name="Layer 1" xmlns="http://www.w3.org/2000/svg" viewBox="0 0 1651.49 2041.78"><defs><style>.cls-1{fill:#0e0f0e;}.cls-2{fill:#93d500;}.cls-3{fill:#98989a;}</style></defs><g id="MONSTER_ENERGY_Branding_2018_Embroidery_Stroke_Claw"><path class="cls-1" d="M1579.5,440.62A38.34,38.34,0,0,1,1568.89,473a58.62,58.62,0,0,1-8.11,21.52c10.41,36.24-32.14,77.79-32.14,77.79,8.91,53,15.72,94.2,4.81,100.6,16.22,10.22,28.93,27.43,26.43,60.17-16,10.41-8.91,25.93-8.91,25.93-15,27-21.83,46.65-20.12,71.27.6,9,10.31,21.73,18.62,32.14s32.43,38.74,37.24,75.28c2.8,30.13-6.91,37.84-5.31,40.74,2,3.71,3.6,9.92,3.6,17-.7,22.53-37.14,89.6-46.65,115.53-1.6,5.4,1.71,7,7.81,10.91-1.6,9.21-3,20-4.2,28.33,7.31,8.31,32.13,33.74,14.21,90.5-5.4,14.91-14.31,30.13-28.63,49.15,0,.1-6,7.41,2.2,13.92,19,14.51,15.72,57.06,15.92,62.66-.1,20.73-5,36.64-15.72,52.56a37.54,37.54,0,0,1,.3,22.12c6.61,17.62,1.61,39.35,2.31,45,.4,3.51,8.91,19.82,8.61,39.34-.2,11.72-2.61,31.24-22.73,50.76-12.51,12.11-25.32,66.27-53,103.51l-11.62,65.27c-9.41,40.14-34.33,65.87-34.33,65.87l-26.33-56.36-15.22-61.17c-21.72-31.63,7.31-127.33,5.31-130.84-33.84-61.16-26.43-118.42-26.43-118.42s25.53-5.71,29.23-11.72c4.1-13.61.2-41.14.2-41.14l6.71-9c-1-7.31-25.43-34.44-14.42-67.47,3.71-9.71,12.72-21,23.53-39.75V1232c5.5-14.82,7-26.63,4.3-49.86-2.2-19.42,1.8-59.86,3.3-66.87,0,0-.1-28.93,0-31.23s3.31-5.21,3.91-8c.5-2.3-3.3-5-3.5-6.81-.71-10.11-1.91-45.75-2.61-56.86-5.1-12-16.21-24.93-24.72-55.16-3.71-13.11-2.91-26.73.1-39.94,0,0,6-31.94,14.51-73.18-8.61-10.41-12.91-21.92-15.92-32.14-2-6.8-3.6-9.41-6.6-11.41-21.33-14.81-20.93-44.75-20.93-50-16.91-33.94-12.81-49.55-.9-65.57l-2.1-27.73s10.31-15.22,8.91-21.83c-2-9.21-37.24-30.13-31.33-70.47,15.91-7.51,30.23-10.91,44.14-38.24-6.9-6.91-11-18.12-11.31-41.55,0,0,7.11-5.9,14.42-32.53-10.61-25.33-5-55.06-1.4-64.17,2.9-7.41-7.21-27.83-.5-40.65-9.31-4.9-11.82-18.11-11.82-18.11a192.93,192.93,0,0,1-31.53-11.12c-18.12,7.11-36.24,8-47.85,7.41-13.72-8.71-35.94-13.11-35.94-13.11s-9.61-8-14.92-14.32c-11.91.7-50.15,4.31-62.86-2.4-4.11,4-9.51,8.81-15.42,13.61-.3,12.82-5.11,24.93-14.42,33.94,7.61,25.93,15.72,44.45,1.3,73.38,12.42,17,26.53,28,26.23,51.05-.3,18.92-10,36.24-15,54.06,3.4,14.92,11.81,28.13,15.91,42.85,20.33,72,6.81,95.5-21.62,119.43,7.41,29.73-3,69-14,93.5,11,25.53,9.51,42.64,9.51,42.64,15,32.24,39.14,91.6,32.33,123.94-1.9,8.41-5.91,39.14-5.91,39.14-13.91,22.22-30.13,23.32-47.75,65.27.6,19.62-.3,35.34-20.12,62.57-.7,6.3-1.3,12.81-2.1,20.22-8.71,14.82-16.22,20.42-21.12,32.63-1.31,3.11,1.2,12.22-1.61,24.63,11.42,23.13,15.92,37.54,5.51,62.07,0,0,2.9,9-1.5,12.51,11.81,21.22,2.4,46.15-.5,53.16,3.4,6.71,3.3,19.32,3.3,19.32-16.52,33,16.42,62.47-12.61,90.6-4.51,4.5,1.5,5.9,1.3,20.62-.6,50.75-11.11,99.41-4.51,104.51l3.31,35.64c30.13,38.24,47.75,69.78,17.32,114,.4,8.91,5.9,51.66-10,73.58,5,34.14,4.1,52.86-9.81,60.67,2.5,9-10.72,88.69-10.72,88.69l-41.44,66.28c-12,20.42-24.23,24.12-33.84,57.86-34-32.84-35.94-60.37-37-86.6-.8-19.32,10.81-61.26,10.81-61.26l2.21-33.34c6.8-2.8,5-20.62,5-20.62s-14.21-27.73-18.42-65.87c-4.1-5.21-6-13.62-6-13.62-20.23-16.41-38.55-48.85-30.34-78.68,4.61-5.51,15.62-20,19.52-27.73-5.4-10.71-.1-18.42-10.81-43.45l.5-25.82c-8-18.12-8.51-37,2.21-54.26-11.52-22.63.2-34.94,1.5-57.67l-12.52-7.3s-.3-27.53-3.1-43.55c-7.51-40-3.7-82.49,2.9-110.12-3.9-4.4-1.8-9.41-7.5-15.42-17.22-18.11-32-41.54-29.64-83.59,6.51-3.9,15.12-11.91,28.73-52.45-1.4-36.34,19.93-46.45,21.13-49.86,1.5-6.6,6.2-66.27,6.2-66.27,5-4.7,5.31-23,5.31-23,.9-9.91,25.23-40.25,24.63-52.46-.3-4.2-22.33-74.38-22.33-74.38-22.22-25.33-18.32-49.45-12.81-73.68-7-22.82,11.51-107.51,12.91-114.12,1.3-6-1.2-7.81-3.3-10-37.14-29.23-26.13-69.68-18.22-111.62-18.92-25-4.71-32.54-4.71-32.54-15.81-41.14-6.2-70.27,3.81-110.42,1.6-6.2.1-7.2-4-9.21-50.85-24.62-40-80.28-38.44-107,14.42-2.9,15.12-33.54,15.12-33.54-9.81-8.31-15.92-27.63-20.42-40.54,0,0,4.7-5.81-5.31-15.62-48.95-1.2-59.46-27-92.3-16.62,1.5,4.51,10.11,35.54,10.11,35.54-25,22.93-6.5,77.79-6.5,77.79-8.71,2.5-31.64,7-33.64,9.41-8.61,11-30.93,12.81-30.93,12.81-21.43,17.42-7.61,50.25-8.81,73.18,29.93-4.21,26.52,29.33,24.82,64.47l-4.5,5.8c0,36.24-37.34,55.46-37.34,92,17.82,15.82,17.12,39.05,14.21,60.67,0,0-4.2,21.12.8,29.53,20.13,20.12,14.52,47.65,14.52,54.26,5.51,15.82,19.92,47.85,26.43,61.87,13.51,14.21,26.13,29.13,27.23,49.75l.1.3c1.3,27.93-21,47-33,69.67-3.2,11.72-7.11,25.53-12.71,33.24,20,37.94,7.91,54,7.91,54a354.18,354.18,0,0,0-6,38.54c46.75,32.14,23.73,85.59,5.91,129-10.21,30.93-12.62,64.27-25.33,94.5-24.63,59.07,3.5,115.43,3.5,115.43,25.43,44.44-1.9,68.37-3.6,83.69,5.71,25,3.8,42.54-7.61,66.57,22.83,34-.2,127.54-.2,127.54.2,27.43,9.81,88.49,9.81,88.49,16.42,49.35-1.3,77.78,2.2,113.32l-1.5,32.34s-34.64-15.82-39.74-23.13c-5-7.1-23.73-28.93-33.24-75.28,0,0-26.83-30.13-31.33-65.47l-8.51-75.68c-1.1-27.73-20.52-122-29.23-144.76-9.71-25.32-39.54-60.86-12.61-97.4-17.52-25.13-22.53-46.65-15.12-73.48,3.3-11.91,5.1-12.51-4.21-19.42-9.81-7.31-32.83-22.63-36-64,17.31-12.41,30.53-44.65,36.64-61,5.2-13.41,21.12-25,21.12-42.14,0-35-8.31-61.17-8.31-61.17s1.3-26.23,1.8-37.74a185.7,185.7,0,0,1-26.73-21.12c-1-23.23.6-33.74,8.61-54.16,9.51-24-3.3-44.75,3.51-80-.61,0-18.32-80.08-30.34-119-7.11-22.93-16.52-41.55-29.63-61.67-11.21-17.32-25.73-37-24.63-58,.91-16,6.91-30.94,12.42-45.75,1.8-11.51,7.21-56.06,7.21-56.06s21-54.36,26.22-73.08c-17.42-29.23,2.11-47.45.6-61.87-1.6-12.91-11.51-24.52-12.11-39.74-49.45-26-45.95-59.26-45.15-65.07,6.21-6.61,10.21-16.82,10.21-16.82-3.2-3.4-6.7-18-7.6-19.52-19.43-10.31-22.43-16.32-59.77-13.91-3.1-1.31-57.26-33.24-174.19-20.23,5.51-19.32,15.82-45.15,29.63-59.06,0,0,33.24-26,76.69-33.24,16.12-13.11,30.53-10.41,32.13-13.61,6.51-13.22,22.83-13.52,43.65-22.73,16.42,3.11,57.46,9,82.89.2,20.82-7.1,32.43-29.73,58.56-32.73C550.49,66,566,70,581.32,69.61a153.77,153.77,0,0,1,15.32,20.73c8.21,12.81,11.11,15.41,28,21,23,7.11,54.66,4.81,79.58,3.4,0,0,13.72,14.52,16.22,12.42,16.12-10.71,38.54-17.62,39.34-17.82s24.13-29.93,70.58-29.93c2.6,1.5,8.91,6.5,27.23,4.8,28.83-36.34,78.88-31.93,100-38.64,15.41-4.91,18.72-7.71,30.93-12.11,0,0,19.62-11.22,22.83-13.52,15.21-11.21,26.52-14.31,53.05-13,3.91,29.63,14,31.13,18.52,33.83,13.52,4.91,31.34,6.61,44,14.12,6.61,5.81,17.22,15.42,28.43,25.73,25.63,9.81,55.36,19.32,57.36,56.56,24.23,4.7,42.85,11,49.36,42.64,4.8,0,32.83-30.93,62.06-23.42,10-3.2,18.72-13.52,26.23-54.06,57.76,2.4,67-46.15,114.82-43.75,2.81,13.22,6.51,28.53,14.42,31.74,27.33,8.71,53.36-8.11,87.3,43.74,18.41,3.81,34.83-1.1,33.23,55.86a46.38,46.38,0,0,0,13.82,7.21c2.8,20.32,25.92,54.36,10.31,82.69,7.71,7.91,15.41,18.12,16.61,32.84,1.51,20.12-20.22,35-33.23,64.07,0,7,1.7,41.34,1.7,41.34C1585.4,431,1579.5,440.62,1579.5,440.62Z" transform="translate(-201.81 -6.67)"/><path id="_Compound_Path_Fill" data-name="&lt;Compound Path&gt;Fill" class="cls-2" d="M1186.71,202.39c-22.37,29.31-30.81,27.86-30.81,27.86l.54,30.27c-4,7.77-30.54,26.26-34.56,35.1s1.34,16.87-5.9,23.84c-6.42,6.19-11.25,7.23-13.39,13.13-1.13,3.11,6.9,33.44,11,39.65,11.21,17-11.44,35.91-8,49,1.81,7,4,14.32,22.23,32.15,16.55,16.13-10.7,51.25-9.91,69.38,2.68,20.36,37.29,99.72,22.5,119.49-14.6,19.52-29.73,20.62-32.68,42.06,13.66,4.55,5.36,57.06-8.31,84.12-3.21,6.16-3.91,9.82.54,19.55,10.1,22.1,8,40.45,8,40.45,10.44,18.49,38,96.71,33,109.31-.8,4.82-5.09,33.75-5.09,33.75-15.79,26-26.13,12.91-43.94,59.47-2.49,6.53-6.07,8.3-4.82,25.72,1.62,22.59-17.68,38.85-19.29,42.6-.8,4.55-2.41,21.16-2.41,21.16-9.91,15.54-20.63,27.86-22.23,39.38-1.2,8.6,1.34,17.15-1.61,25.45-2.33,6.57-5.63,8.31-1.07,16.61s4.28,8.84.53,11c18.32,3,8.58,27.32.81,37l5.37,3.57c-6.08,4.76-7.47,10.13-6.71,13.3,1.34,5.63,11.52,9.38,11.25,21.44-.54,13.12-9.11,24.11-9.38,28.93,1.61,3.75,4.82,8,5.63,15.27-11.46,30.87,9.71,57,1.07,67.24-5.48,6.52-18.21,14.38-16.61,19.29,12.12,37.24-.52,78.27,2.41,106.89-1.87,15-13.76,43.37-9.91,43.4,15.35.12,12,30.54,12,30.54,8.58,12.86,35.63,40.72,34.29,56.26s-15.27,28.66-18.21,36.7c-.27.8,2.14,47.15,2.14,47.15-2.41,7.77-9.37,24.11-13.13,27.59,1.08,11,6.43,39.38,2.15,43.67-16,1.21-7.14,43.06-12.33,45.81l-2.41,54.12c-1.87,1.07-5.62,2.41-7.23,4-4.29,7-3.21,21.17-7.5,27.87-15.54,19-29.74,23.57-35.1,61.61-9.37-24.11-9.1-49.56,7.77-88.94,0,0-2.24-26.82,6.09-31.87,6.89-4.19,1.58-60.45,1.58-60.45s-15.37.38-18.64-52.66a12,12,0,0,1,1.51-1.27c-2.15-1.91-6.77-5.66-7.41-8.77-.16-2,.48-4.22-1.91-8.52s-4.53-6.31-10-10.75c-6.21-5-10.29-8.29-12.43-13.07-2.31-5.18-7.57-23.66-6.85-28.84,5.82-10.28,25.18-27.09,25.42-45.17,0,0-4.19-1-7.57-13.39a170,170,0,0,0-7.89-29.71l.48-26.77c-2.71-5.58-6.88-13.94-6.46-20.56.56-8.76,11.56-16.17,11.88-26.77.25-8.44-12.12-15.45-8.45-27.24,3.32-10.67,7.25-22.07,7.33-36.49.06-11.16-6.13-22.39-7.25-25.74l-7.41-1.83s-15.82-69.18,5.1-134.24c-3.9-1.91-6.21-4.15-9.48-13.15s-3-9.27-8-14.82c-14.82-16.33-22.62-27.08-23.1-49.63,11.18-5.06,19.47-45,23.66-49.71,7.54-8.53,3.76-24.41,5.58-30.92,2.47-8.84,16.81-15,18.88-20.63l4.75-57.76,5.45,5.5,2.39-45.18c7.25-18.16,18-33.33,24.77-56.48,3.83-13.15-22.12-82.44-22.12-82.44s8.22-13.43-9.58-26c-5-3.5-13.81-7.17-7.62-20.49,7.69-16.56-7.86-35.86,1.65-50.35,6-9.22,5.39-66.3,15.86-99.57,6.27-19.94-24.83-24.84-29-34.29-7.37-16.51,15-78.88.82-94-.51-2.78.91-2.84,3.09-4.53s4.22-3.4,1.86-7.83c-29.88-55.9,5.35-103.48,2.57-126.75-7.5-26.32-45.72-16.14-45.72-59.31,0-17.56,15.34-9.68,15.34-9.68,9.42-9.53-6-8.54,2.68-82.47-7.72-2.68-12.87-5.15-15.13-11,0,0,12.25-2,15.13-12.15-12.25-5.36-23.56-24.46-31.51-35.22-25.43-34.44-45.4-22.55-45.4-22.55a35.85,35.85,0,0,0-2.37,6.59c-14.73-1.85-39-16.26-57.05-16.26-28.61,0-57.17,11.89-60.23,21.16,7.33,8.68,13.66,30.17,16,38.67-22.43,14.76-17.77,33.1-17.77,33.1,7.6,8.37,6.18,26.41,10.18,32.59-13.86,1.27-13.15,7.51-20.88,10.85-4.64,2-17.16,0-24.06,7.63-15.68,17.37-34.57,27.76-23,101.7,1.73,11-1.54,22.8-5.41,28.72,0,0,25-3.52,28.6,1.93,2.57,3.74,1.93,13.91,1.8,20.87-7.07,7.82-1.49,21.28-10.3,32.46-7.6,11.59-29.59,30.51-33,92.23,4.64,6.69,10.87,6.45,14.69,12.36,6.42,10-2.15,34.53,1,42.12,0,0-4.12-1.67-5.67-.39,6.67,10.78-4.53,19,4,34.14,7.65,13.57,14.3,17.39,16,26.53s-.18,17.06,1.54,22.41c6.7,20.87,29.76,70.21,29.76,70.21,2.57,7.08,22.28,19.19,23.18,35.42.52,10.56-13.52,30.25-19.32,37.09-17.56,20.72-11.65,33.52-19.19,43.28-6.58,8.52-13.14,14.17-15.2,27.82,37.27,25.94,9.2,31.6,9.66,99.7,0,8.18,26.87,17.08,28.59,28.21,1.68,10.82-5.28,38.38-20.09,74.45-3.56,8.67-12.88,55.9-18.42,74.84-3.86,13.91-22.42,50.7-20,79,6.28,72.15,28.27,95.46,25.37,106.39l-15.46,41.35c-.64,5.41,1.94,13.39,3.48,19.83s3.36,11.34.52,19.2c-5.41,14.94-12.24,23.8-12.24,32.46,0,10.94,9,20.93,11.21,27.43,4.89,14.25-10.44,99.7-10.44,99.7,1.13,29.63,9.49,98.46,10.18,96.09,8.11,18,17.07,26.67,16.49,42.12-.52,13.65-12.76,23.18-12.5,33,.52,7.86,9.66,10.82,7.6,22.29-1.8-7.09-11.58-14.7-16-22.55-10.83-19.36,8.87-40.7-.52-53.06-6.58-8.68-20.48-21.13-23.83-30-17-33.78-16.35-131.93-25.11-156-3-8.13-7.09-25.25-12.5-51.52-3.11-15.12-7.34-39.93-19.7-61.7-21.74-37-12.24-37.87,3.47-65.18-7.47-23.06-27.18-32.33-24.21-56,1.32-10.6,11-26.31,9.53-37.22-2.83-21.26-39.16-28.73-43.92-55,18.62-9.73,23.54-51.09,41.34-70.2,27.63-29.65,8.63-100.08,6.83-107.16.77-15.07,2.58-53.07,2.58-53.07-5.54-2.45-25.89-15.33-27.7-17-1.15-11.13,15.15-41.74,13-53.59a208.38,208.38,0,0,1-.38-68.78s-23.92-95.81-25.89-103.56c-16.12-63.24-44.19-98.54-47.53-104.21-4.17-7-12.11-18.42-11.73-26.53,1.29-17.26,8.25-28.6,11.6-39.16,2.06-12,7.34-55.9,7.34-55.9s24.09-59.9,28.59-84.5c1.14-6.21-14.9-19.5-5.53-35.55,1.92-3.31,12-23.34-7.6-61.44l.12-15.46c-1.89-10.78-45.54-27.19-45.46-43,4.76-3,13.65-18.93,14.94-27.69-4.12-2.32-8.88-11.41-9.92-17.13-8.72-48-89-47-89-47C325.44,216.77,281,213.56,244,224.26c2.19-3.86,18.11-22.22,36.92-28.49,3.35-.38,35.43-1.67,35.43-1.67,6.69-.9,13.95-9,19.7-11.46,9.79-4.13,19.82-1.28,26-5.93,3.09-2.32,2.79-8.18,5-9.92,4.63-3.6,18-4.51,20.22-8,40.44,7.47,80.37,2.06,95.19-4s34.26-25.63,44.18-29l15.2-1.93c13.13-6.44,10.69-25.38,27.69-27.18,8.89,10.43,6.31,20.1,20.61,32.46,10,8.69,31.17,21.77,103,17.9a77.37,77.37,0,0,0,30.53,25c10-15.25,29.33-27.59,55.9-30.62,2.46-8.85,10.57-13.79,10.57-13.79,10-1.8,17.13-15.45,32.46-15.07,13.52,6.32,44.31,5.54,53.19,3.61,11.85-19.19,23.45-29,50.88-29.11,3.48-3.09,15.59-2.17,26.41-5.28,55.62-16,64.53-27.82,64.53-27.82,6.83-4.12,7.86-9.41,14.43-11.85,7.56-2.82,11.07-2.19,15.45-2.06,3,9.14,6.94,20.46,14.43,25.76,11.85,8.37,25.25,7,46.63,17.26,1.8,1.54,27.56,25.12,27.56,25.12,14.81,9.27,40.58,7.47,43,28.72-6.82,3.35-10.56,9-10.3,22.15,5.54.78,6,2.62,9.79,6.44,5.7,5.8,49.2-1.42,50.64,20-5.89.81-10.71,8.84-17.68,11C1202.51,198.64,1190.46,197.48,1186.71,202.39Zm394.62,84.95c29.13-32.49,6.48-42.83,5.18-66-4.93.91-21.74-6.06-27.89-8.29.73-8.77,5.29-25.14,10.12-27.38-.7-7.91.85-17.55-8.27-18.92-11.73-1.77-15-6.65-18.25-10.33-6.19-7.06-16.53-25.83-24.61-28.91-17.55-6.71-39.23-1.55-54-8.44-8.24-3.83-13.43-12.56-16.21-26.08-20.45,9.91-29.57,37.44-75.35,38.48-1.89,15.48-11.46,47.52-45.43,60.75a12.63,12.63,0,0,0-9.19-3.3c-22.41,1.72-28.07,19.2-45.16,23-20.58,4.53-39.78-11.06-64.92,20.61-9.35,11.79-20.3,25.29-32.35,29.42,12.56,10.33,44.92.18,65.23,4,13.34,2.49,13.59,9,22.86,17,8.28,2.47,22,6.77,27.8,9.75,13,.12,32.46-5.39,40.34-11.81,12.18,9.23,43.92,19.67,58.66,21.61,0,0-2.09,10.28,7.57,7.69-.63,16.19,2.81,19.46,20.29,25.52-.78,7.36-9.56,14.25-12.14,21.13s2.93,18.07,2.75,30.63c-.08,6-4.38,14.78-5.76,31.77-1,11.6,8,28.47,7.55,33.52-.51,5.77-10.39,33-15.21,41.07.52,15.49,14.8,22.54,22.88,25-8.94,19.78-42.33,57.82-55.75,64.77,1.38,7.16,4.13,12.67,19.45,27.29,20.33,19.43,11.35,34.08,3.28,52.28l2.49,33.28c-23.25,16.94-2.57,32.45,0,46.63,0,0-2.85,24.72,9.17,32.17,20.26,12.56,14.08,46,36.43,55.48-.23,10.06-17,82-17,82l4.93-3.38c-21.11,43.31,11.59,69.47,19.65,96.63,0,0,.62,53.14,4,56,18,16.25.75,20.19-1.5,29.72l0,27.36c-7,28.75-7,60.58,3,78.54l-5.47-2.12c.86,14.63,0,27.88-5.11,42.27v46.81s-20.19,32.42-25.32,40.91c-4,11.81,3.09,22,11.15,38.32,9.47,19.1,5.16,29.43-1,37.64,2.55,42.73-6.23,57.87-30.38,66.35-.46,47.45,24.5,69.83,26.56,91.51.95,10-24.34,101.7-3.83,126.11-3.57,9,1.26,28.52,3.21,36.46,1.79,7.28,4.55,20.9,2.93,30.37,0,0,15.06-8.27,14.9-81.42-1.76-9.72,16.52-29.09,23.92-43.2,7.17-13.67,10.9-25.7,18.59-45.6,6.71-17.39,16.69-25.65,24.78-38.55,9.38-15,8.26-20.48,3.27-36.49-2.58-10.67-6.37-12.22-4.65-30.29,1.66-17.35,1.38-22-1.66-26.54.4-12.1-.74-18.2-2.8-19.64a21.1,21.1,0,0,0,2.74-2c-11-17.9,18.1-40.8,15-56.11-1.55-9.81,1.37-27.36-4-42.85-2.33-6.75-10.67-10-13.53-15.82,0,0,1.83-3.11,3.55-4.14,0,0-1.61-4.92-6.19-5.29.68-1.94,1.71-5,1.6-12.15-4.94-26.31,44.3-47.23,34-98.56-3.22-16.08-16.34-23.92-22.76-35.52,0,0,4.35-17,5-19.54-2-3.1-9.81-7.28-10.94-13.77-2.09-12.05,53-119.05,52.15-129.25s-10.5-15.32-8.28-22.72c.67-2.41,12.88-8.55,10.35-29.94-7.41-48.19-52.32-70.9-56.11-109.28-3.14-31.84,9.29-62.47,17.92-78.83-2.21-9,3.25-31.66,10.15-37.14-.67-13.91-22.39-25.15-35.45-31,.67-12.53,10.82-21.48,12.69-27.33-.66-8.43-5-35.28-5-43.3l5,1.92c.54-16.1-10.38-39.86-8.23-50.17,3.61-17.38,41.37-50.78,32.35-69-4.58-9.26-1.3-11,3.21-18.18s6.94-11.94,5.55-20c1.7-2.36,9.65-11.07,10.34-12.45s1-2.92-2.9-8.92c11.29-5.72-7.67-14.33,33-37.19,0,0-2-25.83-2.46-31.05,11.44-27.82,34-54,33.87-56.73C1605.5,304.46,1587.14,291.55,1581.33,287.34Z" transform="translate(-201.81 -6.67)"/><path class="cls-3" d="M1833.47,85.79c-7.93,0-14.39-6.76-14.39-15s6.46-15.05,14.39-15.05,14.35,6.78,14.35,15.05S1841.4,85.79,1833.47,85.79Zm0-34.87a19.84,19.84,0,1,0,19.84,19.84A19.86,19.86,0,0,0,1833.47,50.92Zm9,29.61s-2.16-3.58-3.54-5.82c-.78-1.07-1.54-2.31-2.76-2.76a5.32,5.32,0,0,0,4.67-5.53c0-3.76-2.5-6.26-6.55-6.26h-8.15V80.53h5.18V72.47c.4.36,1,1.26,2.88,4.6.84,1.28,1.19,1.9,2.1,3.46Zm-7.08-14.09c0,1.39-.63,2-2.7,2h-1.37V64.37h1.47C1834.47,64.37,1835.35,65,1835.35,66.44Z" transform="translate(-201.81 -6.67)"/></g></svg>